<?xml version="1.0" encoding="utf-8"?>
<svg version="1.1" id="Layer_1" x="0px" y="0px" width="100%" viewBox="0 0 204 129" enable-background="new 0 0 204 129" xmlns="http://www.w3.org/2000/svg">
  <path opacity="1.000000" d="M 83.268 4.124 C 90.607 2.537 115.736 2.674 125.572 5.782 C 138.177 9.764 150.523 14.545 166.238 26.191 C 178.335 35.156 192.117 50.908 200.047 63.876 C 188.928 82.224 174.271 97.21 155.852 108.547 C 144.057 115.807 131.474 120.671 117.746 122.916 C 106.03 124.833 94.555 124.528 82.907 122.312 C 66.888 119.263 52.658 112.571 39.618 102.999 C 25.793 92.85 14.228 81.461 2.558 63.838 C 2.355 63.532 24.287 32.733 42.783 21.506 C 54.571 14.351 62.87 8.282 83.268 4.124 Z M 96.257 57.723 C 87.273 50.663 67.544 36.262 66.003 35.244 C 51.83 51.981 50.764 78.314 69.205 96.975 C 80.309 108.211 94.532 112.319 108.28 110.225 C 115.988 109.051 123.841 106.204 130.836 100.42 C 137.619 94.811 141.273 88.337 144.398 80.525 C 147.94 71.671 148.76 62.896 146.377 51.593 C 145.028 45.194 142.375 40 136.514 34.202 C 131.537 29.279 123.949 23.561 115.771 21.121 C 107.013 18.508 97.904 18.238 92.904 19.714 C 102.586 34.146 112.282 48.599 122.199 63.381 C 117.159 65.505 112.193 67.598 106.923 69.819 C 112.605 78.314 127.331 99.136 126.933 99.481 C 113.555 89.03 94.257 74.204 80.798 63.69 C 85.642 61.67 90.809 59.994 96.257 57.723 Z" style="fill: rgb(255, 255, 255);" stroke="none"/>
</svg>